<?xml version="1.0" encoding="UTF-8"?>
<svg version="1.1" xmlns="http://www.w3.org/2000/svg" width="1024" height="595">
<path d="M0 0 C337.92 0 675.84 0 1024 0 C1024 196.35 1024 392.7 1024 595 C686.08 595 348.16 595 0 595 C0 398.65 0 202.3 0 0 Z " fill="#F9F9F9" transform="translate(0,0)"/>
<path d="M0 0 C117.1263048 0 117.1263048 0 130 2.25 C130.74362793 2.37930908 131.48725586 2.50861816 132.25341797 2.6418457 C155.57668858 6.94474912 176.80573714 17.07667668 191.265625 36.44921875 C206.28658428 58.5408548 211.35737677 83.53383138 206.8684082 109.83276367 C202.39616789 132.87553377 191.12695769 152.82266196 171.59301758 166.42871094 C160.13938562 174.0654879 148.45507442 179.12692914 135 182 C134.23018799 182.1664502 133.46037598 182.33290039 132.66723633 182.50439453 C115.48093936 186.10482448 98.13990308 186.12514087 80.66015625 186.0546875 C78.74613534 186.05028822 76.83211345 186.04629766 74.91809082 186.04272461 C70.27870241 186.03318856 65.6393624 186.01814424 61 186 C61.00222061 187.18794662 61.00444122 188.37589325 61.00672913 189.59983826 C61.02695892 200.76907986 61.04197135 211.93831777 61.05181217 223.10757351 C61.05704141 228.85045062 61.0641398 234.59331301 61.07543945 240.33618164 C61.08626687 245.87339995 61.09227652 251.41060404 61.09487724 256.94783211 C61.09673176 259.06544277 61.10035286 261.18305262 61.10573006 263.30065727 C61.11293856 266.25571274 61.11399102 269.21070871 61.11352539 272.16577148 C61.11712067 273.05049637 61.12071594 273.93522125 61.12442017 274.84675598 C61.11405216 280.88594784 61.11405216 280.88594784 60 282 C40.2 282 20.4 282 0 282 C0 188.94 0 95.88 0 0 Z " fill="#070707" transform="translate(178,76)"/>
<path d="M0 0 C22.77 0 45.54 0 69 0 C70.9450137 5.18670321 72.76823572 10.27672867 74.34765625 15.56640625 C74.56385117 16.28062241 74.78004608 16.99483856 75.00279236 17.73069763 C75.9094148 20.72592529 76.81024415 23.72288231 77.71069336 26.7199707 C80.9211173 37.38866151 84.27362626 48.00640624 87.70703125 58.60546875 C91.25927607 69.57177949 94.77060802 80.54981835 98.2265625 91.546875 C98.44474136 92.24112579 98.66292023 92.93537659 98.88771057 93.65066528 C100.2368603 97.94527629 101.58412548 102.24047679 102.93075943 106.53587723 C104.11878812 110.32482518 105.30786686 114.1134436 106.49682617 117.90209961 C107.94173908 122.50653422 109.38652363 127.1110089 110.83067322 131.71568298 C113.47117554 140.13414548 116.11667849 148.55100527 118.76965332 156.96554565 C120.27085734 161.72724269 121.77025215 166.48950843 123.26947021 171.25183105 C123.96003921 173.44375824 124.65147402 175.63541285 125.34381104 177.82678223 C126.29015127 180.82258924 127.23333827 183.81937135 128.17578125 186.81640625 C128.45072922 187.68384964 128.72567719 188.55129303 129.00895691 189.44502258 C130.21045134 193.27602128 131.33341509 197.03117861 132 201 C132.66 201 133.32 201 134 201 C134.23976563 199.79730469 134.47953125 198.59460938 134.7265625 197.35546875 C136.02482256 191.53142426 137.87193895 185.91061722 139.73779297 180.24731445 C140.86303362 176.83063548 141.97362385 173.40918595 143.0859375 169.98828125 C143.3218158 169.26391876 143.55769409 168.53955627 143.80072021 167.79324341 C146.32812428 160.01853694 148.78460029 152.22176481 151.23764038 144.42333984 C155.97614716 129.36087852 160.77888967 114.32054003 165.6399231 99.2971344 C169.38891591 87.70957811 173.12922826 76.11921933 176.86632156 64.52782059 C177.49731781 62.57081866 178.12851882 60.61388286 178.75973511 58.6569519 C184.03846353 42.2885793 189.28761661 25.91242246 194.32226562 9.46704102 C194.84723633 7.76245728 194.84723633 7.76245728 195.3828125 6.0234375 C195.67559082 5.06356934 195.96836914 4.10370117 196.27001953 3.11474609 C197 1 197 1 198 0 C200.02494231 -0.09409479 202.0531987 -0.11743122 204.08032227 -0.11352539 C206.03223228 -0.11341209 206.03223228 -0.11341209 208.02357483 -0.11329651 C209.45451902 -0.10818909 210.88546282 -0.10297308 212.31640625 -0.09765625 C213.7722926 -0.09579203 215.22817957 -0.09436815 216.68406677 -0.09336853 C220.52279379 -0.08954365 224.36148319 -0.07971364 228.20019531 -0.06866455 C232.11457816 -0.05844978 236.02896706 -0.05387077 239.94335938 -0.04882812 C247.62892343 -0.03809134 255.31445645 -0.02101529 263 0 C262.45870528 5.75612885 261.295985 10.65146079 259.26171875 16.046875 C258.98524506 16.80258789 258.70877136 17.55830078 258.42391968 18.33691406 C257.82900072 19.96198598 257.23056803 21.58577514 256.62893677 23.20837402 C255.00597418 27.58993636 253.41303887 31.98237335 251.8203125 36.375 C251.49509109 37.2708783 251.16986969 38.16675659 250.83479309 39.08978271 C247.76013546 47.59450114 244.88645922 56.15939588 242.0625 64.75 C238.26265084 76.28491908 234.35715321 87.77437521 230.32446289 99.22998047 C222.54313893 121.33810761 215.04432074 143.53917258 207.5625 165.75 C207.26802601 166.6241795 206.97355202 167.49835899 206.67015457 168.39902878 C205.19570097 172.77632337 203.72141153 177.15367325 202.24711609 181.53102112 C201.81632028 182.81007922 201.81632028 182.81007922 201.37682152 184.11497688 C200.80113367 185.82427845 200.22548173 187.53359212 199.6498661 189.24291801 C194.4393684 204.71470499 189.19099705 220.17330411 183.9152832 235.62298584 C180.94061837 244.3346433 177.97118393 253.04729626 175.07421875 261.78515625 C174.8535675 262.4503981 174.63291626 263.11563995 174.40557861 263.80104065 C173.42182233 266.77035299 172.44274172 269.74110057 171.47021484 272.71411133 C170.99189209 274.16660278 170.99189209 274.16660278 170.50390625 275.6484375 C170.23392822 276.47520996 169.9639502 277.30198242 169.68579102 278.15380859 C169 280 169 280 168 281 C165.79132169 281.09432985 163.57958479 281.11742431 161.36889648 281.11352539 C160.67624695 281.11367142 159.98359741 281.11381744 159.2699585 281.1139679 C156.97030554 281.11326874 154.67073263 281.10547628 152.37109375 281.09765625 C150.78068588 281.09579208 149.19027743 281.09436817 147.59986877 281.09336853 C143.4060407 281.08954329 139.21224705 281.07971295 135.01843262 281.06866455 C130.74211086 281.05845057 126.46578356 281.05387094 122.18945312 281.04882812 C113.79295292 281.03809069 105.39648074 281.02101419 97 281 C93.60510033 273.10596873 90.57215021 265.16770577 87.84765625 257.01953125 C87.47128525 255.9055899 87.09491425 254.79164856 86.70713806 253.64395142 C85.90454167 251.26691373 85.10384952 248.88923236 84.30493164 246.51095581 C83.03851668 242.74110673 81.76718106 238.97293734 80.49414062 235.20532227 C79.20298012 231.38327569 77.91207805 227.56114383 76.62319946 223.73832703 C73.10298337 213.2975669 69.5619522 202.86409006 66 192.4375 C65.72699066 191.63799927 65.45398132 190.83849854 65.17269897 190.01477051 C59.30892491 172.84918465 53.38373414 155.70476896 47.45361328 138.56201172 C43.27144173 126.47188961 39.09586309 114.3795844 34.9375 102.28125 C26.85779089 78.78143737 18.73959663 55.29733259 10.4375 31.875 C10.07742859 30.85890656 9.71735718 29.84281311 9.34637451 28.79592896 C8.33507468 25.94422011 7.32230533 23.09303983 6.30859375 20.2421875 C6.01578018 19.41785721 5.72296661 18.59352692 5.42127991 17.74421692 C5.14489182 16.96865952 4.86850372 16.19310211 4.58374023 15.39404297 C4.32205048 14.65957947 4.06036072 13.92511597 3.79074097 13.168396 C2.98886466 10.96946429 2.14210256 8.79100324 1.29321289 6.60986328 C0 3 0 3 0 0 Z " fill="#070707" transform="translate(387,76)"/>
<path d="M0 0 C86.13 0.495 86.13 0.495 174 1 C174 19.48 174 37.96 174 57 C173 58 173 58 171.1590414 58.12304783 C169.94365736 58.12166514 169.94365736 58.12166514 168.70372009 58.12025452 C167.77678848 58.12162918 166.84985687 58.12300385 165.89483643 58.12442017 C164.86985046 58.12082489 163.8448645 58.11722961 162.78881836 58.11352539 C161.17926018 58.11374443 161.17926018 58.11374443 159.53718567 58.1139679 C155.97138484 58.11326824 152.40563551 58.10547338 148.83984375 58.09765625 C146.37504607 58.09579226 143.91024801 58.09436827 141.44544983 58.09336853 C134.94346095 58.08954187 128.44149425 58.07971032 121.93951416 58.06866455 C114.14605067 58.05602947 106.35257577 58.0520489 98.55910492 58.04621124 C86.7060545 58.03649865 74.85305278 58.01734311 63 58 C63 76.81 63 95.62 63 115 C93.36 115 123.72 115 155 115 C155 133.15 155 151.3 155 170 C124.64 170 94.28 170 63 170 C63 206.63 63 243.26 63 281 C42.21 281 21.42 281 0 281 C0 188.27 0 95.54 0 0 Z " fill="#070707" transform="translate(675,75)"/>
<path d="M0 0 C1.40958984 0.63615234 1.40958984 0.63615234 2.84765625 1.28515625 C15.25677539 7.41290559 21.7962969 16.54777823 27 29 C27.36222656 29.85980469 27.72445312 30.71960938 28.09765625 31.60546875 C32.83400014 45.4620283 31.70310533 65.52921486 25.31640625 78.6796875 C17.85559072 91.83020509 8.10398058 99.94277633 -6.046875 105.11328125 C-18.83802396 108.58782495 -35.98368661 107.5393121 -48 102 C-48.93328125 101.59910156 -49.8665625 101.19820312 -50.828125 100.78515625 C-60.25424255 96.24324207 -69.98585519 87.86810598 -74 78 C-79.27796795 61.40217973 -79.86772025 37.99981462 -71.875 22.125 C-63.2022939 8.59970835 -51.0083081 -0.11453224 -35.33496094 -3.60449219 C-23.50575341 -5.6081848 -10.91642217 -5.20679274 0 0 Z " fill="#080808" transform="translate(814,428)"/>
<path d="M0 0 C5.03132971 -0.01720652 10.06264167 -0.02957102 15.09399414 -0.0377655 C16.79972635 -0.04118765 18.5054566 -0.04585201 20.21118164 -0.05186462 C66.66063569 -0.21130016 66.66063569 -0.21130016 80.8515625 13.75 C81.56054688 14.4925 82.26953125 15.235 83 16 C83.87785156 16.86625 83.87785156 16.86625 84.7734375 17.75 C95.85298181 29.44819907 96.58592966 45.05026165 96.3046875 60.2421875 C95.74422538 74.39269817 91.08402552 85.3986893 80.8125 95.3125 C62.38272645 109.80500375 37.91362601 108.06802982 15.875 108.125 C15.14647827 108.12776947 14.41795654 108.13053894 13.6673584 108.13339233 C11.58808153 108.13916778 9.50896452 108.13741232 7.4296875 108.1328125 C6.21522949 108.13168457 5.00077148 108.13055664 3.74951172 108.12939453 C1 108 1 108 0 107 C-0.09543095 105.60856311 -0.12188575 104.21231633 -0.12025452 102.81761169 C-0.12162918 101.91592255 -0.12300385 101.0142334 -0.12442017 100.08522034 C-0.12082489 99.08828659 -0.11722961 98.09135284 -0.11352539 97.06420898 C-0.11367142 96.02043091 -0.11381744 94.97665283 -0.1139679 93.90124512 C-0.11326826 90.43284057 -0.10547353 86.96448897 -0.09765625 83.49609375 C-0.09579225 81.09855682 -0.09436826 78.7010195 -0.09336853 76.30348206 C-0.08954194 69.97904416 -0.07971046 63.65462906 -0.06866455 57.3302002 C-0.05845345 50.88224598 -0.05387156 44.43428809 -0.04882812 37.98632812 C-0.03808832 25.324209 -0.02120119 12.66210571 0 0 Z " fill="#080909" transform="translate(546,426)"/>
<path d="M0 0 C0.98484375 -0.00128906 1.9696875 -0.00257813 2.984375 -0.00390625 C4.02078125 -0.00003906 5.0571875 0.00382812 6.125 0.0078125 C7.67960937 0.00201172 7.67960937 0.00201172 9.265625 -0.00390625 C10.25046875 -0.00261719 11.2353125 -0.00132812 12.25 0 C13.16007812 0.00112793 14.07015625 0.00225586 15.0078125 0.00341797 C17.125 0.1328125 17.125 0.1328125 18.125 1.1328125 C18.24347919 3.10943877 18.29241003 5.09026128 18.31445312 7.0703125 C18.33117065 8.34253662 18.34788818 9.61476074 18.3651123 10.92553711 C18.37179428 11.61050262 18.37847626 12.29546814 18.38536072 13.00119019 C18.40638058 15.14613707 18.43341245 17.29093301 18.46203613 19.43579102 C18.52183714 24.00140614 18.57380756 28.56709392 18.625 33.1328125 C18.68442657 38.39728255 18.74711361 43.66168151 18.81687927 48.92602539 C18.84320514 51.02683227 18.86418172 53.12764697 18.8848877 55.22851562 C18.64784817 70.19188614 18.64784817 70.19188614 25.125 83.1328125 C30.90312129 87.50163591 37.10628956 87.6980088 44.125 87.1328125 C48.63827285 86.24138847 52.07384455 85.04920443 55.5625 82.0078125 C60.22334687 73.43185426 59.46654649 63.42381608 59.5390625 53.94140625 C59.55780261 52.38484198 59.57737808 50.82828757 59.5977478 49.27174377 C59.64877507 45.20305224 59.68855682 41.13432787 59.72589111 37.06549072 C59.76611662 32.90230383 59.81712372 28.73925002 59.8671875 24.57617188 C59.96359793 16.4284768 60.04811267 8.2807151 60.125 0.1328125 C63.93748426 0.10394014 67.7499407 0.08605758 71.5625 0.0703125 C72.65111328 0.06193359 73.73972656 0.05355469 74.86132812 0.04492188 C75.89580078 0.04169922 76.93027344 0.03847656 77.99609375 0.03515625 C78.95443115 0.02991943 79.91276855 0.02468262 80.90014648 0.01928711 C83.125 0.1328125 83.125 0.1328125 84.125 1.1328125 C84.2298219 3.24706181 84.26356816 5.36485385 84.27026367 7.48168945 C84.27362228 8.14530991 84.2769809 8.80893036 84.28044128 9.49266052 C84.28999091 11.70215702 84.29189748 13.91157784 84.29296875 16.12109375 C84.29618247 17.66033459 84.29954664 19.19957511 84.30305481 20.73881531 C84.3090588 23.97798366 84.3108938 27.2171253 84.31030273 30.45629883 C84.31020193 34.57708751 84.32376285 38.69770069 84.34107494 42.81844807 C84.35228916 46.00580098 84.35421895 49.19311303 84.35369301 52.38048363 C84.3548625 53.89729597 84.35922538 55.41410974 84.36702538 56.93090248 C84.44150548 72.93389133 83.84446733 89.07266298 72.125 101.1328125 C60.36292576 110.98462285 45.90606198 112.12027384 31.125 111.1328125 C20.87157171 109.57474965 11.22981338 105.92142247 4.125 98.1328125 C-3.31692624 87.87832728 -5.99633411 77.42710431 -6.00439453 64.83642578 C-6.00614685 64.14450638 -6.00789917 63.45258698 -6.00970459 62.73970032 C-6.01406772 60.47748223 -6.01120677 58.21534372 -6.0078125 55.953125 C-6.00848667 54.37368759 -6.00945764 52.79425029 -6.01071167 51.21481323 C-6.01218072 47.91826379 -6.01005789 44.62174157 -6.00537109 41.32519531 C-5.99964608 37.09144515 -6.00297522 32.85775799 -6.00894356 28.62401009 C-6.01254665 25.36934936 -6.01141224 22.11470374 -6.00881577 18.86004257 C-6.00814725 17.29786039 -6.00897231 15.73567685 -6.01129532 14.17349625 C-6.01382074 11.9999041 -6.00998417 9.82641635 -6.00439453 7.65283203 C-6.00359894 6.4148587 -6.00280334 5.17688538 -6.00198364 3.90139771 C-5.79054559 -0.70852086 -4.15174933 0.00514558 0 0 Z " fill="#090909" transform="translate(422.875,424.8671875)"/>
<path d="M0 0 C7.755 -0.0825 15.51 -0.165 23.5 -0.25 C25.91248047 -0.28641602 28.32496094 -0.32283203 30.81054688 -0.36035156 C61.31885264 -0.62851059 61.31885264 -0.62851059 71.39453125 8.24609375 C80.42382536 18.11021311 82.87776359 28.73455397 82.4140625 41.80078125 C81.63467518 52.63622569 75.6098697 61.05282276 68.4375 68.75 C56.32113105 77.76824026 39.33079518 75.44836688 25.1875 75.25 C16.875625 75.1675 8.56375 75.085 0 75 C0 50.25 0 25.5 0 0 Z " fill="#F8F8F9" transform="translate(239,131)"/>
<path d="M0 0 C0.96566895 0.01135986 1.93133789 0.02271973 2.92626953 0.03442383 C9.92041241 0.22525912 15.85035057 1.1044703 22.0625 4.5 C22.78179687 4.86222656 23.50109375 5.22445313 24.2421875 5.59765625 C31.40373698 9.58380172 36.81899675 15.49310471 39.5546875 23.25 C40.31956765 26.63900743 40.66705488 30.04884258 41.0625 33.5 C37.5222564 33.76275596 33.98451867 33.92160329 30.4375 34.0625 C29.43847656 34.13791016 28.43945312 34.21332031 27.41015625 34.29101562 C24.38784856 34.3810844 21.973105 34.33695269 19.0625 33.5 C16.98324201 31.38936702 15.71456149 29.37273866 14.36572266 26.74194336 C12.88901186 24.2015471 11.57276747 23.00401826 9.0625 21.5 C5.50016235 21.02369071 5.50016235 21.02369071 1.625 21.125 C0.32691406 21.11726563 -0.97117188 21.10953125 -2.30859375 21.1015625 C-6.06659281 21.51417381 -7.94709139 22.25165575 -10.9375 24.5 C-13.49824371 27.91432495 -13.38156364 31.35540605 -12.9375 35.5 C-9.91932567 39.46416926 -6.32027772 40.68489973 -1.6875 42 C-0.98802246 42.20939209 -0.28854492 42.41878418 0.43212891 42.63452148 C5.39815337 44.09547594 10.40648852 45.34851206 15.4375 46.5625 C35.70262693 51.49496003 35.70262693 51.49496003 41.34375 60.55859375 C45.68786495 69.0141032 46.47277782 78.12826288 44.4140625 87.4296875 C40.98670169 96.83295946 33.99903058 104.09350796 25.0625 108.5 C12.38668998 113.25118763 -4.81651597 113.8456068 -17.46484375 108.7578125 C-21.40423028 106.75389076 -24.69946168 104.50674987 -27.9375 101.5 C-28.86175781 100.65501953 -28.86175781 100.65501953 -29.8046875 99.79296875 C-36.61997411 92.84605643 -39.9375 84.1451681 -39.9375 74.5 C-32.3475 74.5 -24.7575 74.5 -16.9375 74.5 C-15.50520833 77.52734375 -14.07291667 80.5546875 -12.640625 83.58203125 C-10.30649248 87.58110693 -8.28427361 89.05107546 -3.9375 90.5 C-1.66986426 90.64648082 0.60282366 90.7209626 2.875 90.75 C4.67904297 90.78867187 4.67904297 90.78867187 6.51953125 90.828125 C11.57686426 90.35975017 14.81988098 88.70991852 18.4375 85.1875 C20.42384528 81.90239049 20.69216542 80.2779925 20.0625 76.5 C17.36148387 72.40169146 15.34002309 70.82109182 10.625 69.5625 C9.48546875 69.2428125 8.3459375 68.923125 7.171875 68.59375 C5.80230168 68.22834729 4.43248796 67.86384504 3.0625 67.5 C-27.38835639 59.26231719 -27.38835639 59.26231719 -33.9375 49.5 C-34.55625 48.62408203 -34.55625 48.62408203 -35.1875 47.73046875 C-39.28433311 40.97353915 -38.75247905 33.28884383 -37.46484375 25.72265625 C-35.00828979 16.1759286 -29.22323619 9.6046211 -20.9375 4.5 C-13.95508294 0.95537617 -7.78143464 -0.15573751 0 0 Z " fill="#090909" transform="translate(220.9375,423.5)"/>
<path d="M0 0 C1.17044357 0.00303635 1.17044357 0.00303635 2.36453247 0.00613403 C3.59129196 0.00350555 3.59129196 0.00350555 4.84283447 0.00082397 C7.55972383 -0.00359528 10.27654865 -0.0006563 12.99343872 0.00271606 C14.87291476 0.00204305 16.75239071 0.00107304 18.63186646 -0.00018311 C22.57629218 -0.00166018 26.5206953 0.00049478 30.46511841 0.00515747 C35.53306375 0.01085476 40.60095614 0.00757581 45.66889954 0.00158501 C49.55150759 -0.00202035 53.434103 -0.00088214 57.31671143 0.0017128 C59.18591315 0.00238214 61.055116 0.00155341 62.92431641 -0.00076675 C65.53202376 -0.00329287 68.13964413 0.00054672 70.74734497 0.00613403 C71.52764069 0.0041098 72.3079364 0.00208557 73.11187744 0 C78.44167619 0.02126603 78.44167619 0.02126603 79.55593872 1.13552856 C79.64279475 2.69725601 79.66296092 4.26282201 79.65359497 5.82693481 C79.65109741 6.6771521 79.64859985 7.52736938 79.64602661 8.40335083 C79.63692261 9.49059448 79.6278186 10.57783813 79.61843872 11.69802856 C79.59781372 15.14240356 79.57718872 18.58677856 79.55593872 22.13552856 C69.65593872 22.13552856 59.75593872 22.13552856 49.55593872 22.13552856 C49.55593872 50.51552856 49.55593872 78.89552856 49.55593872 108.13552856 C41.63593872 108.13552856 33.71593872 108.13552856 25.55593872 108.13552856 C25.22593872 80.08552856 24.89593872 52.03552856 24.55593872 23.13552856 C14.32593872 22.80552856 4.09593872 22.47552856 -6.44406128 22.13552856 C-6.46468628 18.69115356 -6.48531128 15.24677856 -6.50656128 11.69802856 C-6.51566528 10.61078491 -6.52476929 9.52354126 -6.53414917 8.40335083 C-6.53664673 7.55313354 -6.53914429 6.70291626 -6.54171753 5.82693481 C-6.54695435 4.95238647 -6.55219116 4.07783813 -6.55758667 3.17678833 C-6.32409693 -1.02150778 -3.5515997 0.01417097 0 0 Z " fill="#080808" transform="translate(300.4440612792969,425.8644714355469)"/>
<path d="M0 0 C7.2153022 5.13862908 10.64375229 10.37635049 12.40625 19 C14.17363827 31.96592604 14.11656874 44.41787545 6.35546875 55.46484375 C1.09038234 61.50383443 -5.85285832 63.90774693 -13.6796875 64.66796875 C-21.90777348 64.87939708 -27.80474739 64.04674655 -34.828125 59.63671875 C-42.27285527 52.19198848 -44.3416357 43.6457853 -44.47070312 33.33544922 C-44.38415247 21.58619825 -44.08771652 11.99433509 -35.34765625 3.20703125 C-26.31067308 -4.5023951 -10.54064649 -5.8218687 0 0 Z " fill="#F8F8F8" transform="translate(806.140625,448.67578125)"/>
<path d="M0 0 C7.92 0 15.84 0 24 0 C24.0225482 14.06418001 24.04091345 28.12834812 24.05181217 42.19254208 C24.0570417 48.72236233 24.06414061 55.25216963 24.07543945 61.78198242 C24.08626585 68.07781159 24.09227631 74.37362826 24.09487724 80.66946602 C24.09673194 83.07734944 24.1003534 85.48523214 24.10573006 87.89311028 C24.1129372 91.25289286 24.11399108 94.6126231 24.11352539 97.97241211 C24.11712067 98.97869659 24.12071594 99.98498108 24.12442017 101.02175903 C24.1230455 101.93186234 24.12167084 102.84196564 24.12025452 103.77964783 C24.12117631 104.57515517 24.1220981 105.37066252 24.12304783 106.19027615 C24 108 24 108 23 109 C21.37742456 109.0991657 19.75060169 109.13079777 18.125 109.1328125 C17.14015625 109.13410156 16.1553125 109.13539063 15.140625 109.13671875 C14.10421875 109.13285156 13.0678125 109.12898437 12 109.125 C10.44539062 109.13080078 10.44539062 109.13080078 8.859375 109.13671875 C7.87453125 109.13542969 6.8896875 109.13414062 5.875 109.1328125 C4.96492187 109.13168457 4.05484375 109.13055664 3.1171875 109.12939453 C1 109 1 109 0 108 C-0.0954693 106.59588683 -0.12188529 105.18700191 -0.12025452 103.77964783 C-0.12162918 102.86954453 -0.12300385 101.95944122 -0.12442017 101.02175903 C-0.12082489 100.01547455 -0.11722961 99.00919006 -0.11352539 97.97241211 C-0.11367142 96.91888046 -0.11381744 95.86534882 -0.1139679 94.77989197 C-0.11326826 91.279022 -0.10547348 87.77820448 -0.09765625 84.27734375 C-0.09579225 81.85738657 -0.09436826 79.43742901 -0.09336853 77.01747131 C-0.08954192 70.63384976 -0.07971041 64.25025079 -0.06866455 57.86663818 C-0.05845351 51.35836086 -0.05387157 44.8500799 -0.04882812 38.34179688 C-0.03808827 25.56118637 -0.02049032 12.78059859 0 0 Z " fill="#070707" transform="translate(677,425)"/>
<path d="M0 0 C30.05882353 0 30.05882353 0 38.9375 7.1875 C45.32445355 14.39667769 46.67813401 21.97726913 46.5 31.375 C46.48791504 32.38997559 46.47583008 33.40495117 46.46337891 34.45068359 C46.23064988 43.21398921 45.22942882 50.12468541 39.5 57 C28.16587263 64.6021586 12.45310009 62 0 62 C0 41.54 0 21.08 0 0 Z " fill="#F9F9F9" transform="translate(571,448)"/>
<path d="M0 0 C0.66 0.33 1.32 0.66 2 1 C-0.85276137 3.93200474 -3.65079784 6.64315404 -7 9 C-5.44499019 5.18315774 -2.96404505 2.80804268 0 0 Z " fill="#0E0E0E" transform="translate(754,436)"/>
</svg>
